STARTFONT 2.1
COMMENT Recovered from arc.ast's:TR10 AST (MIT CADR AST source recovered from ARC!!!)
FONT MIT-CADR-TR10
SIZE 12 72 72
FONTBOUNDINGBOX 16 12 0 -3
STARTPROPERTIES 2
FONT_ASCENT 9
FONT_DESCENT 3
ENDPROPERTIES
CHARS 95
STARTCHAR C0018
ENCODING -1 24
SWIDTH 0 0
DWIDTH 0 0
BBX 16 12 0 -3
BITMAP
0000
0000
0000
0000
0000
0000
0000
0000
0000
0000
0000
FFF0
ENDCHAR
STARTCHAR C0020
ENCODING -1 32
SWIDTH 417 0
DWIDTH 5 0
BBX 16 12 0 -3
BITMAP
0000
0000
0000
0000
0000
0000
0000
0000
0000
0000
0000
0000
ENDCHAR
STARTCHAR C0021
ENCODING -1 33
SWIDTH 250 0
DWIDTH 3 0
BBX 16 12 0 -3
BITMAP
0000
4000
4000
4000
4000
4000
0000
4000
4000
0000
0000
0000
ENDCHAR
STARTCHAR C0022
ENCODING -1 34
SWIDTH 417 0
DWIDTH 5 0
BBX 16 12 0 -3
BITMAP
0000
5000
5000
5000
0000
0000
0000
0000
0000
0000
0000
0000
ENDCHAR
STARTCHAR C0023
ENCODING -1 35
SWIDTH 833 0
DWIDTH 10 0
BBX 16 12 0 -3
BITMAP
0000
0900
0900
3F80
1200
1200
7F00
2400
2400
0000
0000
0000
ENDCHAR
STARTCHAR C0024
ENCODING -1 36
SWIDTH 583 0
DWIDTH 7 0
BBX 16 12 0 -3
BITMAP
1000
3C00
5400
5000
3800
1400
1400
5400
7800
1000
0000
0000
ENDCHAR
STARTCHAR C0025
ENCODING -1 37
SWIDTH 1000 0
DWIDTH 12 0
BBX 16 12 0 -3
BITMAP
0000
3700
4900
4A00
3200
04C0
0520
0920
08C0
0000
0000
0000
ENDCHAR
STARTCHAR C0026
ENCODING -1 38
SWIDTH 833 0
DWIDTH 10 0
BBX 16 12 0 -3
BITMAP
0000
0800
1400
1400
1900
2A00
4600
4480
3B00
0000
0000
0000
ENDCHAR
STARTCHAR C0027
ENCODING -1 39
SWIDTH 250 0
DWIDTH 3 0
BBX 16 12 0 -3
BITMAP
0000
4000
4000
4000
0000
0000
0000
0000
0000
0000
0000
0000
ENDCHAR
STARTCHAR C0028
ENCODING -1 40
SWIDTH 417 0
DWIDTH 5 0
BBX 16 12 0 -3
BITMAP
0000
1000
2000
2000
4000
4000
4000
4000
4000
2000
2000
1000
ENDCHAR
STARTCHAR C0029
ENCODING -1 41
SWIDTH 417 0
DWIDTH 5 0
BBX 16 12 0 -3
BITMAP
0000
4000
2000
2000
1000
1000
1000
1000
1000
2000
2000
4000
ENDCHAR
STARTCHAR C002A
ENCODING -1 42
SWIDTH 583 0
DWIDTH 7 0
BBX 16 12 0 -3
BITMAP
1000
5400
3800
5400
1000
0000
0000
0000
0000
0000
0000
0000
ENDCHAR
STARTCHAR C002B
ENCODING -1 43
SWIDTH 583 0
DWIDTH 7 0
BBX 16 12 0 -3
BITMAP
0000
0000
0000
0000
1000
1000
7C00
1000
1000
0000
0000
0000
ENDCHAR
STARTCHAR C002C
ENCODING -1 44
SWIDTH 333 0
DWIDTH 4 0
BBX 16 12 0 -3
BITMAP
0000
0000
0000
0000
0000
0000
0000
6000
2000
2000
4000
0000
ENDCHAR
STARTCHAR C002D
ENCODING -1 45
SWIDTH 500 0
DWIDTH 6 0
BBX 16 12 0 -3
BITMAP
0000
0000
0000
0000
0000
7800
0000
0000
0000
0000
0000
0000
ENDCHAR
STARTCHAR C002E
ENCODING -1 46
SWIDTH 250 0
DWIDTH 3 0
BBX 16 12 0 -3
BITMAP
0000
0000
0000
0000
0000
0000
0000
4000
4000
0000
0000
0000
ENDCHAR
STARTCHAR C002F
ENCODING -1 47
SWIDTH 500 0
DWIDTH 6 0
BBX 16 12 0 -3
BITMAP
0000
0800
0800
1000
1000
2000
2000
4000
4000
0000
0000
0000
ENDCHAR
STARTCHAR C0030
ENCODING -1 48
SWIDTH 500 0
DWIDTH 6 0
BBX 16 12 0 -3
BITMAP
0000
3000
4800
4800
4800
4800
4800
4800
3000
0000
0000
0000
ENDCHAR
STARTCHAR C0031
ENCODING -1 49
SWIDTH 500 0
DWIDTH 6 0
BBX 16 12 0 -3
BITMAP
0000
1000
3000
1000
1000
1000
1000
1000
3800
0000
0000
0000
ENDCHAR
STARTCHAR C0032
ENCODING -1 50
SWIDTH 500 0
DWIDTH 6 0
BBX 16 12 0 -3
BITMAP
0000
3000
4800
0800
0800
1000
2000
4400
7800
0000
0000
0000
ENDCHAR
STARTCHAR C0033
ENCODING -1 51
SWIDTH 500 0
DWIDTH 6 0
BBX 16 12 0 -3
BITMAP
0000
3000
4800
0800
3000
0800
0800
4800
3000
0000
0000
0000
ENDCHAR
STARTCHAR C0034
ENCODING -1 52
SWIDTH 500 0
DWIDTH 6 0
BBX 16 12 0 -3
BITMAP
0000
1800
2800
2800
4800
4800
7C00
0800
0800
0000
0000
0000
ENDCHAR
STARTCHAR C0035
ENCODING -1 53
SWIDTH 500 0
DWIDTH 6 0
BBX 16 12 0 -3
BITMAP
0000
1800
2000
2000
1000
0800
0800
4800
3000
0000
0000
0000
ENDCHAR
STARTCHAR C0036
ENCODING -1 54
SWIDTH 500 0
DWIDTH 6 0
BBX 16 12 0 -3
BITMAP
0000
1800
2000
4000
7000
4800
4800
4800
3000
0000
0000
0000
ENDCHAR
STARTCHAR C0037
ENCODING -1 55
SWIDTH 500 0
DWIDTH 6 0
BBX 16 12 0 -3
BITMAP
0000
3800
4800
0800
1000
1000
2000
2000
2000
0000
0000
0000
ENDCHAR
STARTCHAR C0038
ENCODING -1 56
SWIDTH 500 0
DWIDTH 6 0
BBX 16 12 0 -3
BITMAP
0000
3000
4800
4800
3000
4800
4800
4800
3000
0000
0000
0000
ENDCHAR
STARTCHAR C0039
ENCODING -1 57
SWIDTH 500 0
DWIDTH 6 0
BBX 16 12 0 -3
BITMAP
0000
3000
4800
4800
4800
3800
0800
1000
6000
0000
0000
0000
ENDCHAR
STARTCHAR C003A
ENCODING -1 58
SWIDTH 250 0
DWIDTH 3 0
BBX 16 12 0 -3
BITMAP
0000
0000
0000
4000
4000
0000
0000
4000
4000
0000
0000
0000
ENDCHAR
STARTCHAR C003B
ENCODING -1 59
SWIDTH 333 0
DWIDTH 4 0
BBX 16 12 0 -3
BITMAP
0000
0000
0000
2000
2000
0000
0000
6000
2000
2000
4000
0000
ENDCHAR
STARTCHAR C003C
ENCODING -1 60
SWIDTH 500 0
DWIDTH 6 0
BBX 16 12 0 -3
BITMAP
0000
0800
1000
2000
4000
4000
2000
1000
0800
0000
0000
0000
ENDCHAR
STARTCHAR C003D
ENCODING -1 61
SWIDTH 500 0
DWIDTH 6 0
BBX 16 12 0 -3
BITMAP
0000
0000
0000
0000
0000
7800
0000
7800
0000
0000
0000
0000
ENDCHAR
STARTCHAR C003E
ENCODING -1 62
SWIDTH 500 0
DWIDTH 6 0
BBX 16 12 0 -3
BITMAP
0000
4000
2000
1000
0800
0800
1000
2000
4000
0000
0000
0000
ENDCHAR
STARTCHAR C003F
ENCODING -1 63
SWIDTH 500 0
DWIDTH 6 0
BBX 16 12 0 -3
BITMAP
0000
3000
4800
0800
1000
2000
0000
2000
2000
0000
0000
0000
ENDCHAR
STARTCHAR C0040
ENCODING -1 64
SWIDTH 1000 0
DWIDTH 12 0
BBX 16 12 0 -3
BITMAP
0000
0F80
3040
2720
4920
4920
4940
2680
3020
0FC0
0000
0000
ENDCHAR
STARTCHAR C0041
ENCODING -1 65
SWIDTH 833 0
DWIDTH 10 0
BBX 16 12 0 -3
BITMAP
0000
0800
0800
1400
1400
2200
3E00
4100
E380
0000
0000
0000
ENDCHAR
STARTCHAR C0042
ENCODING -1 66
SWIDTH 667 0
DWIDTH 8 0
BBX 16 12 0 -3
BITMAP
0000
FC00
4200
4200
7C00
4200
4200
4200
FC00
0000
0000
0000
ENDCHAR
STARTCHAR C0043
ENCODING -1 67
SWIDTH 667 0
DWIDTH 8 0
BBX 16 12 0 -3
BITMAP
0000
3A00
4600
8200
8000
8000
8000
4200
3C00
0000
0000
0000
ENDCHAR
STARTCHAR C0044
ENCODING -1 68
SWIDTH 750 0
DWIDTH 9 0
BBX 16 12 0 -3
BITMAP
0000
FC00
4200
4100
4100
4100
4100
4200
FC00
0000
0000
0000
ENDCHAR
STARTCHAR C0045
ENCODING -1 69
SWIDTH 667 0
DWIDTH 8 0
BBX 16 12 0 -3
BITMAP
0000
FC00
4200
4800
7800
4800
4000
4200
FC00
0000
0000
0000
ENDCHAR
STARTCHAR C0046
ENCODING -1 70
SWIDTH 667 0
DWIDTH 8 0
BBX 16 12 0 -3
BITMAP
0000
FC00
4200
4800
7800
4800
4000
4000
F000
0000
0000
0000
ENDCHAR
STARTCHAR C0047
ENCODING -1 71
SWIDTH 750 0
DWIDTH 9 0
BBX 16 12 0 -3
BITMAP
0000
3A00
4600
8000
8000
8700
8200
4200
3C00
0000
0000
0000
ENDCHAR
STARTCHAR C0048
ENCODING -1 72
SWIDTH 750 0
DWIDTH 9 0
BBX 16 12 0 -3
BITMAP
0000
E700
4200
4200
7E00
4200
4200
4200
E700
0000
0000
0000
ENDCHAR
STARTCHAR C0049
ENCODING -1 73
SWIDTH 333 0
DWIDTH 4 0
BBX 16 12 0 -3
BITMAP
0000
E000
4000
4000
4000
4000
4000
4000
E000
0000
0000
0000
ENDCHAR
STARTCHAR C004A
ENCODING -1 74
SWIDTH 417 0
DWIDTH 5 0
BBX 16 12 0 -3
BITMAP
0000
7000
2000
2000
2000
2000
2000
A000
C000
0000
0000
0000
ENDCHAR
STARTCHAR C004B
ENCODING -1 75
SWIDTH 750 0
DWIDTH 9 0
BBX 16 12 0 -3
BITMAP
0000
E600
4400
4800
7000
5800
4C00
4600
E300
0000
0000
0000
ENDCHAR
STARTCHAR C004C
ENCODING -1 76
SWIDTH 667 0
DWIDTH 8 0
BBX 16 12 0 -3
BITMAP
0000
E000
4000
4000
4000
4000
4000
4200
FC00
0000
0000
0000
ENDCHAR
STARTCHAR C004D
ENCODING -1 77
SWIDTH 1000 0
DWIDTH 12 0
BBX 16 12 0 -3
BITMAP
0000
E0E0
60C0
5140
5140
4A40
4A40
4440
E4E0
0000
0000
0000
ENDCHAR
STARTCHAR C004E
ENCODING -1 78
SWIDTH 750 0
DWIDTH 9 0
BBX 16 12 0 -3
BITMAP
0000
E700
6200
5200
5200
4A00
4A00
4600
E600
0000
0000
0000
ENDCHAR
STARTCHAR C004F
ENCODING -1 79
SWIDTH 750 0
DWIDTH 9 0
BBX 16 12 0 -3
BITMAP
0000
3C00
4200
8100
8100
8100
8100
4200
3C00
0000
0000
0000
ENDCHAR
STARTCHAR C0050
ENCODING -1 80
SWIDTH 583 0
DWIDTH 7 0
BBX 16 12 0 -3
BITMAP
0000
F800
4400
4400
4400
7800
4000
4000
E000
0000
0000
0000
ENDCHAR
STARTCHAR C0051
ENCODING -1 81
SWIDTH 750 0
DWIDTH 9 0
BBX 16 12 0 -3
BITMAP
0000
3C00
4200
8100
8100
8100
8100
4200
3C00
0800
0600
0000
ENDCHAR
STARTCHAR C0052
ENCODING -1 82
SWIDTH 667 0
DWIDTH 8 0
BBX 16 12 0 -3
BITMAP
0000
F800
4400
4400
7800
5000
4800
4400
E600
0000
0000
0000
ENDCHAR
STARTCHAR C0053
ENCODING -1 83
SWIDTH 500 0
DWIDTH 6 0
BBX 16 12 0 -3
BITMAP
0000
6800
9800
8000
6000
1000
8800
C800
B000
0000
0000
0000
ENDCHAR
STARTCHAR C0054
ENCODING -1 84
SWIDTH 667 0
DWIDTH 8 0
BBX 16 12 0 -3
BITMAP
0000
FE00
9200
1000
1000
1000
1000
1000
3800
0000
0000
0000
ENDCHAR
STARTCHAR C0055
ENCODING -1 85
SWIDTH 750 0
DWIDTH 9 0
BBX 16 12 0 -3
BITMAP
0000
E700
4200
4200
4200
4200
4200
4200
3C00
0000
0000
0000
ENDCHAR
STARTCHAR C0056
ENCODING -1 86
SWIDTH 833 0
DWIDTH 10 0
BBX 16 12 0 -3
BITMAP
0000
E380
4100
4100
2200
2200
1400
1400
0800
0000
0000
0000
ENDCHAR
STARTCHAR C0057
ENCODING -1 87
SWIDTH 1000 0
DWIDTH 12 0
BBX 16 12 0 -3
BITMAP
0000
EEE0
4440
4440
2A80
2A80
2A80
1100
1100
0000
0000
0000
ENDCHAR
STARTCHAR C0058
ENCODING -1 88
SWIDTH 667 0
DWIDTH 8 0
BBX 16 12 0 -3
BITMAP
0000
EE00
4400
2800
1000
1000
2800
4400
EE00
0000
0000
0000
ENDCHAR
STARTCHAR C0059
ENCODING -1 89
SWIDTH 667 0
DWIDTH 8 0
BBX 16 12 0 -3
BITMAP
0000
EE00
4400
2800
2800
1000
1000
1000
3800
0000
0000
0000
ENDCHAR
STARTCHAR C005A
ENCODING -1 90
SWIDTH 583 0
DWIDTH 7 0
BBX 16 12 0 -3
BITMAP
0000
7C00
8400
0800
1000
2000
4000
8400
F800
0000
0000
0000
ENDCHAR
STARTCHAR C005B
ENCODING -1 91
SWIDTH 417 0
DWIDTH 5 0
BBX 16 12 0 -3
BITMAP
0000
7000
4000
4000
4000
4000
4000
4000
4000
4000
4000
7000
ENDCHAR
STARTCHAR C005C
ENCODING -1 92
SWIDTH 500 0
DWIDTH 6 0
BBX 16 12 0 -3
BITMAP
0000
4000
4000
2000
2000
1000
1000
0800
0800
0000
0000
0000
ENDCHAR
STARTCHAR C005D
ENCODING -1 93
SWIDTH 417 0
DWIDTH 5 0
BBX 16 12 0 -3
BITMAP
0000
7000
1000
1000
1000
1000
1000
1000
1000
1000
1000
7000
ENDCHAR
STARTCHAR C005E
ENCODING -1 94
SWIDTH 583 0
DWIDTH 7 0
BBX 16 12 0 -3
BITMAP
0000
0000
0000
1000
3800
5400
1000
1000
1000
0000
0000
0000
ENDCHAR
STARTCHAR C005F
ENCODING -1 95
SWIDTH 667 0
DWIDTH 8 0
BBX 16 12 0 -3
BITMAP
0000
0000
0000
1000
2000
7E00
2000
1000
0000
0000
0000
0000
ENDCHAR
STARTCHAR C0061
ENCODING -1 97
SWIDTH 500 0
DWIDTH 6 0
BBX 16 12 0 -3
BITMAP
0000
0000
0000
7000
0800
7800
8800
8800
7400
0000
0000
0000
ENDCHAR
STARTCHAR C0062
ENCODING -1 98
SWIDTH 583 0
DWIDTH 7 0
BBX 16 12 0 -3
BITMAP
0000
C000
4000
5800
6400
4400
4400
4400
3800
0000
0000
0000
ENDCHAR
STARTCHAR C0063
ENCODING -1 99
SWIDTH 500 0
DWIDTH 6 0
BBX 16 12 0 -3
BITMAP
0000
0000
0000
7000
8800
8000
8000
8800
7000
0000
0000
0000
ENDCHAR
STARTCHAR C0064
ENCODING -1 100
SWIDTH 583 0
DWIDTH 7 0
BBX 16 12 0 -3
BITMAP
0000
1800
0800
6800
9800
8800
8800
8800
7400
0000
0000
0000
ENDCHAR
STARTCHAR C0065
ENCODING -1 101
SWIDTH 500 0
DWIDTH 6 0
BBX 16 12 0 -3
BITMAP
0000
0000
0000
7000
8800
F800
8000
8800
7000
0000
0000
0000
ENDCHAR
STARTCHAR C0066
ENCODING -1 102
SWIDTH 417 0
DWIDTH 5 0
BBX 16 12 0 -3
BITMAP
0000
3000
4800
E000
4000
4000
4000
4000
E000
0000
0000
0000
ENDCHAR
STARTCHAR C0067
ENCODING -1 103
SWIDTH 583 0
DWIDTH 7 0
BBX 16 12 0 -3
BITMAP
0000
0000
0000
3400
4800
4800
3000
4000
3800
4400
7800
0000
ENDCHAR
STARTCHAR C0068
ENCODING -1 104
SWIDTH 667 0
DWIDTH 8 0
BBX 16 12 0 -3
BITMAP
0000
C000
4000
5800
6400
4400
4400
4400
EE00
0000
0000
0000
ENDCHAR
STARTCHAR C0069
ENCODING -1 105
SWIDTH 333 0
DWIDTH 4 0
BBX 16 12 0 -3
BITMAP
0000
4000
0000
C000
4000
4000
4000
4000
E000
0000
0000
0000
ENDCHAR
STARTCHAR C006A
ENCODING -1 106
SWIDTH 333 0
DWIDTH 4 0
BBX 16 12 0 -3
BITMAP
0000
2000
0000
6000
2000
2000
2000
2000
2000
A000
C000
0000
ENDCHAR
STARTCHAR C006B
ENCODING -1 107
SWIDTH 583 0
DWIDTH 7 0
BBX 16 12 0 -3
BITMAP
0000
C000
4000
4C00
5000
6000
5000
4800
EC00
0000
0000
0000
ENDCHAR
STARTCHAR C006C
ENCODING -1 108
SWIDTH 333 0
DWIDTH 4 0
BBX 16 12 0 -3
BITMAP
0000
C000
4000
4000
4000
4000
4000
4000
E000
0000
0000
0000
ENDCHAR
STARTCHAR C006D
ENCODING -1 109
SWIDTH 833 0
DWIDTH 10 0
BBX 16 12 0 -3
BITMAP
0000
0000
0000
B600
4900
4900
4900
4900
DD80
0000
0000
0000
ENDCHAR
STARTCHAR C006E
ENCODING -1 110
SWIDTH 667 0
DWIDTH 8 0
BBX 16 12 0 -3
BITMAP
0000
0000
0000
D800
6400
4400
4400
4400
EE00
0000
0000
0000
ENDCHAR
STARTCHAR C006F
ENCODING -1 111
SWIDTH 500 0
DWIDTH 6 0
BBX 16 12 0 -3
BITMAP
0000
0000
0000
7000
8800
8800
8800
8800
7000
0000
0000
0000
ENDCHAR
STARTCHAR C0070
ENCODING -1 112
SWIDTH 583 0
DWIDTH 7 0
BBX 16 12 0 -3
BITMAP
0000
0000
0000
D800
6400
4400
4400
6400
5800
4000
E000
0000
ENDCHAR
STARTCHAR C0071
ENCODING -1 113
SWIDTH 500 0
DWIDTH 6 0
BBX 16 12 0 -3
BITMAP
0000
0000
0000
6800
9800
8800
8800
9800
6800
0800
1C00
0000
ENDCHAR
STARTCHAR C0072
ENCODING -1 114
SWIDTH 417 0
DWIDTH 5 0
BBX 16 12 0 -3
BITMAP
0000
0000
0000
F000
5000
4000
4000
4000
E000
0000
0000
0000
ENDCHAR
STARTCHAR C0073
ENCODING -1 115
SWIDTH 417 0
DWIDTH 5 0
BBX 16 12 0 -3
BITMAP
0000
0000
0000
7000
8000
6000
1000
9000
E000
0000
0000
0000
ENDCHAR
STARTCHAR C0074
ENCODING -1 116
SWIDTH 333 0
DWIDTH 4 0
BBX 16 12 0 -3
BITMAP
0000
0000
4000
E000
4000
4000
4000
5000
2000
0000
0000
0000
ENDCHAR
STARTCHAR C0075
ENCODING -1 117
SWIDTH 667 0
DWIDTH 8 0
BBX 16 12 0 -3
BITMAP
0000
0000
0000
CC00
4400
4400
4400
4400
3A00
0000
0000
0000
ENDCHAR
STARTCHAR C0076
ENCODING -1 118
SWIDTH 667 0
DWIDTH 8 0
BBX 16 12 0 -3
BITMAP
0000
0000
0000
EE00
4400
4400
2800
2800
1000
0000
0000
0000
ENDCHAR
STARTCHAR C0077
ENCODING -1 119
SWIDTH 833 0
DWIDTH 10 0
BBX 16 12 0 -3
BITMAP
0000
0000
0000
EB80
4900
4900
2A00
3600
2200
0000
0000
0000
ENDCHAR
STARTCHAR C0078
ENCODING -1 120
SWIDTH 500 0
DWIDTH 6 0
BBX 16 12 0 -3
BITMAP
0000
0000
0000
D800
5000
2000
2000
5000
D800
0000
0000
0000
ENDCHAR
STARTCHAR C0079
ENCODING -1 121
SWIDTH 667 0
DWIDTH 8 0
BBX 16 12 0 -3
BITMAP
0000
0000
0000
EE00
4400
2800
2800
1000
1000
A000
6000
0000
ENDCHAR
STARTCHAR C007A
ENCODING -1 122
SWIDTH 583 0
DWIDTH 7 0
BBX 16 12 0 -3
BITMAP
0000
0000
0000
7C00
8800
1000
2000
4400
F800
0000
0000
0000
ENDCHAR
STARTCHAR C007B
ENCODING -1 123
SWIDTH 583 0
DWIDTH 7 0
BBX 16 12 0 -3
BITMAP
0000
0C00
1000
1000
1000
1000
6000
1000
1000
1000
1000
0C00
ENDCHAR
STARTCHAR C007C
ENCODING -1 124
SWIDTH 250 0
DWIDTH 3 0
BBX 16 12 0 -3
BITMAP
0000
4000
4000
4000
4000
4000
4000
4000
4000
4000
4000
0000
ENDCHAR
STARTCHAR C007D
ENCODING -1 125
SWIDTH 583 0
DWIDTH 7 0
BBX 16 12 0 -3
BITMAP
0000
6000
1000
1000
1000
1000
0C00
1000
1000
1000
1000
6000
ENDCHAR
STARTCHAR C007E
ENCODING -1 126
SWIDTH 667 0
DWIDTH 8 0
BBX 16 12 0 -3
BITMAP
0000
0000
0000
0000
3200
4C00
0000
0000
0000
0000
0000
0000
ENDCHAR
ENDFONT
